<svg version="1.1" xmlns="http://www.w3.org/2000/svg" xmlns:xlink="http://www.w3.org/1999/xlink" x="0px" y="0px" width="100%" height="100%"
	 viewBox="0 0 400 400" style="enable-background:new 0 0 400 400;" xml:space="preserve" >
<style type="text/css">
	.st0{fill:#191919;}
	.circle{
        fill:#3658C1;
        animation: circleAnim 1s infinite;
        -webkit-animation: circleAnim 1s infinite;
        -o-animation: circleAnim 1s infinite;
        -moz-animation: circleAnim 1s infinite;
    }
    
    @keyframes circleAnim {
        0% {opacity: 0; }
        50% {opacity: 1; }
        100% {opacity: 0; }
    }
    @-webkit-keyframes circleAnim {
        0% {opacity: 0; }
        50% {opacity: 1; }
        100% {opacity: 0; }
    }
    @-o-keyframes circleAnim {
        0% {opacity: 0; }
        50% {opacity: 1; }
        100% {opacity: 0; }
    }
    @-moz-keyframes circleAnim {
        0% {opacity: 0; }
        50% {opacity: 1; }
        100% {opacity: 0; }
    }
    
    #c3 {animation-delay: 0.1s; -webkit-animation-delay: 0.1s; -moz-animation-delay: 0.1s; -o-animation-delay: 0.1s;}
    #c5 {animation-delay: 0.2s; -webkit-animation-delay: 0.2s; -moz-animation-delay: 0.2s; -o-animation-delay: 0.2s;}
    #c7 {animation-delay: 0.3s; -webkit-animation-delay: 0.3s; -moz-animation-delay: 0.3s; -o-animation-delay: 0.3s;}
    #c9 {animation-delay: 0.4s; -webkit-animation-delay: 0.4s; -moz-animation-delay: 0.4s; -o-animation-delay: 0.4s;}
    #c10 {animation-delay: 0.5s; -webkit-animation-delay: 0.5s; -moz-animation-delay: 0.5s; -o-animation-delay: 0.5s;}
    #c8 {animation-delay: 0.6s; -webkit-animation-delay: 0.6s; -moz-animation-delay: 0.6s; -o-animation-delay: 0.6s;}
    #c6 {animation-delay: 0.7s; -webkit-animation-delay: 0.7s; -moz-animation-delay: 0.7s; -o-animation-delay: 0.7s;}
    #c4 {animation-delay: 0.8s; -webkit-animation-delay: 0.8s; -moz-animation-delay: 0.8s; -o-animation-delay: 0.8s;}
    #c2 {animation-delay: 0.9s; -webkit-animation-delay: 0.9s; -moz-animation-delay: 0.9s; -o-animation-delay: 0.9s;}
</style>
<g id="container">
	<circle id="XMLID_1_" class="st0" cx="200" cy="197.5" r="197.5"/>
</g>
<g id="dots">
	<path id="c1" class="circle" d="M148.02,357.83c0,0,0,0,0-0.011l0,0c-9.19-2.979-14.23-12.84-11.25-22.039l0,0
		c2.98-9.19,12.85-14.23,22.04-11.25l0,0c9.19,2.979,14.23,12.84,11.25,22.039l0,0c-2.39,7.4-9.26,12.11-16.64,12.11l0,0
		C151.63,358.68,149.81,358.41,148.02,357.83z"/>
	<path id="c2" class="circle" d="M230.09,346.54c-2.99-9.19,2.04-19.061,11.229-22.05l0,0c9.19-2.99,19.061,2.04,22.051,11.229
		l0,0c2.989,9.19-2.04,19.061-11.23,22.05l0,0c-1.8,0.59-3.62,0.87-5.41,0.87l0,0C239.35,358.64,232.49,353.939,230.09,346.54z"/>
	<path id="c3" class="circle" d="M63.76,296.67c-5.69-7.811-3.98-18.76,3.83-24.45l0,0c7.81-5.689,18.76-3.979,24.45,3.83l0,0
		c5.7,7.81,3.98,18.76-3.83,24.45l0,0c-3.11,2.27-6.72,3.359-10.29,3.359l0,0C72.51,303.859,67.19,301.37,63.76,296.67z"/>
	<path id="c4" class="circle" d="M311.899,300.39c-7.819-5.689-9.55-16.64-3.859-24.45l0,0c5.689-7.819,16.63-9.54,24.439-3.859
		l0,0c7.82,5.689,9.551,16.63,3.86,24.45l0,0l0,0l0,0c-3.42,4.699-8.76,7.199-14.16,7.199l0,0
		C318.609,303.729,315,302.649,311.899,300.39z"/>
	<path id="5" class="circle" d="M31.5,197.68c-0.01-9.66,7.82-17.51,17.48-17.52l0,0c9.67-0.01,17.51,7.82,17.52,17.48l0,0
		c0.01,9.67-7.82,17.51-17.48,17.521l0,0c-0.01,0-0.01,0-0.02,0l0,0C39.34,215.16,31.51,207.34,31.5,197.68z"/>
	<path id="c6" class="circle" d="M333.5,197.5c0-0.05,0-0.1,0-0.16l0,0c0-0.04,0-0.08,0-0.13l0,0
		c-0.021-9.66,7.8-17.51,17.46-17.53l0,0c9.67-0.03,17.52,7.79,17.54,17.46l0,0c0,0.07,0,0.13,0,0.2l0,0c0,0.06,0,0.11,0,0.16l0,0
		l0,0l0,0c0,9.66-7.84,17.5-17.5,17.5l0,0C341.34,215,333.5,207.16,333.5,197.5z"/>
	<path id="c7" class="circle" d="M67.43,123.06c-7.82-5.68-9.56-16.62-3.88-24.44l0,0c5.68-7.82,16.62-9.56,24.44-3.88l0,0
		c7.83,5.67,9.56,16.61,3.89,24.44l0,0c-3.43,4.71-8.77,7.22-14.18,7.22l0,0C74.14,126.4,70.54,125.31,67.43,123.06z"/>
	<path id="c8" class="circle" d="M307.87,118.83c-5.7-7.8-4-18.75,3.81-24.45l0,0c7.8-5.71,18.75-4,24.45,3.8l0,0l0,0l0,0
		c5.7,7.81,4,18.76-3.811,24.46l0,0c-3.109,2.27-6.72,3.37-10.3,3.37l0,0C316.62,126.01,311.3,123.52,307.87,118.83z"/>
	<path id="c9" class="circle" d="M136.48,59.35c-3-9.19,2.02-19.07,11.21-22.07l0,0l0,0l0,0c9.19-3,19.06,2.02,22.06,11.21l0,0
		c3,9.19-2.02,19.07-11.21,22.07l0,0c-1.8,0.58-3.63,0.86-5.43,0.86l0,0C145.74,71.42,138.89,66.73,136.48,59.35z"/>
	<path id="c10" class="circle" d="M241.05,70.43c-9.19-2.97-14.24-12.83-11.28-22.03l0,0c2.971-9.2,12.84-14.25,22.04-11.28l0,0
		c9.19,2.97,14.24,12.83,11.271,22.03l0,0c-2.391,7.41-9.261,12.13-16.65,12.13l0,0C244.649,71.28,242.84,71,241.05,70.43z"/>
</g>
</svg>
