<?xml version="1.0" encoding="utf-8"?>
<!-- Generator: Adobe Illustrator 19.0.0, SVG Export Plug-In . SVG Version: 6.00 Build 0)  -->
<svg version="1.1" id="Layer_1" xmlns="http://www.w3.org/2000/svg" xmlns:xlink="http://www.w3.org/1999/xlink" x="0px" y="0px"
	 viewBox="0 0 150.893 247.321" style="enable-background:new 0 0 150.893 247.321;" xml:space="preserve">
<style type="text/css">
	.st0{fill:#EDEEF0;}
	.st1{fill:#211915;}
	.st2{fill:#FFFFFF;stroke:#FFFFFF;stroke-width:4;stroke-miterlimit:10;}
	.st3{fill:#FFFFFF;stroke:#BFBFBF;stroke-width:4;stroke-miterlimit:10;}
</style>
<g id="XMLID_16_">
	<g id="XMLID_14_">
		<path id="XMLID_18_" class="st0" d="M11.768,240.964c-1.93,0-3.5-1.57-3.5-3.5v-227c0-1.93,1.57-3.5,3.5-3.5h128
			c1.93,0,3.5,1.57,3.5,3.5v227c0,1.93-1.57,3.5-3.5,3.5H11.768z"/>
		<path id="XMLID_13_" class="st1" d="M138.768,11.464v225h-126v-225H138.768 M139.768,2.464h-128c-4.4,0-8,3.6-8,8v227
			c0,4.4,3.6,8,8,8h128c4.4,0,8-3.6,8-8v-227C147.768,6.064,144.168,2.464,139.768,2.464L139.768,2.464z"/>
	</g>
	<line id="XMLID_25_" class="st2" x1="13.759" y1="13.91" x2="137.777" y2="13.91"/>
	<line id="XMLID_28_" class="st3" x1="136.702" y1="236.18" x2="136.702" y2="11.29"/>
	<line id="XMLID_26_" class="st2" x1="15.615" y1="13.91" x2="15.615" y2="236.18"/>
	<line id="XMLID_27_" class="st3" x1="13.759" y1="233.997" x2="137.777" y2="233.997"/>
</g>
</svg>
