<?xml version="1.0" encoding="utf-8"?>
<!-- Generator: Adobe Illustrator 19.0.0, SVG Export Plug-In . SVG Version: 6.00 Build 0)  -->
<svg version="1.1" id="Layer_1" xmlns="http://www.w3.org/2000/svg" xmlns:xlink="http://www.w3.org/1999/xlink" x="0px" y="0px"
	 viewBox="0 0 150 163.839" style="enable-background:new 0 0 150 163.839;" xml:space="preserve">
<style type="text/css">
	.st0{fill:#E8E6CF;}
	.st1{fill:#211915;}
</style>
<g id="XMLID_29_">
	<g id="XMLID_15_">
		<path id="XMLID_17_" class="st0" d="M10.982,157.158c-1.93,0-3.5-1.57-3.5-3.5V48.395c0-1.93,1.57-3.5,3.5-3.5h105.263
			c1.93,0,3.5,1.57,3.5,3.5v105.264c0,1.93-1.57,3.5-3.5,3.5H10.982z"/>
		<path id="XMLID_13_" class="st1" d="M115.245,49.395v103.263H11.982V49.395H115.245 M116.245,40.395H10.982c-4.4,0-8,3.6-8,8
			v105.263c0,4.4,3.6,8,8,8h105.263c4.4,0,8-3.6,8-8V48.395C124.245,43.995,120.645,40.395,116.245,40.395L116.245,40.395z"/>
	</g>
	<path id="XMLID_30_" d="M10.561,47.974c0,0,30.316-18.832,30.316-45.474h106.105c0,0-1.875,45.474-30.316,45.474
		S10.561,48.75,10.561,47.974z"/>
</g>
</svg>
